<svg xmlns="http://www.w3.org/2000/svg" xmlns:xlink="http://www.w3.org/1999/xlink" width="157" height="95" viewBox="0 0 157 95"><defs><style>.a{fill:none;}.b{clip-path:url(#a);}.c{fill:#00a04b;}.d{fill:#4d5859;}.e{fill:rgba(221,221,221,0.98);font-size:15px;font-family:HelveticaNeue, Helvetica Neue;}</style><clipPath id="a"><rect class="a" width="157" height="95"/></clipPath></defs><g class="b"><circle class="c" cx="47.5" cy="47.5" r="47.5"/><path class="d" d="M20,0H124a20,20,0,0,1,20,20v0a20,20,0,0,1-20,20H0a0,0,0,0,1,0,0V20A20,20,0,0,1,20,0Z" transform="translate(13 28)"/><path class="c" d="M13.5,0h6A13.5,13.5,0,0,1,33,13.5v0A13.5,13.5,0,0,1,19.5,27H0a0,0,0,0,1,0,0V13.5A13.5,13.5,0,0,1,13.5,0Z" transform="translate(20 35)"/><text class="e" transform="translate(100 53)"><tspan x="-46.822" y="0">Want to chat?</tspan></text></g></svg>